<svg xmlns="http://www.w3.org/2000/svg" viewBox="0 0 1663 708"><g fill="#FBC62B"><path d="M941.32 178.55c-1.05 6-3.23 10.42-6.54 13.26-3.3 2.82-7.37 4.23-12.19 4.23-5.44 0-9.82-1.21-13.19-3.63-3.35-2.42-5.82-6.03-7.42-10.86-1.58-4.84-2.37-10.84-2.37-18.03 0-7.33.84-13.35 2.56-18.12 1.7-4.79 4.23-8.38 7.61-10.79 3.35-2.42 7.37-3.63 12.1-3.63 5.07 0 9.24 1.23 12.47 3.72 3.23 2.47 5.51 7.49 6.82 15.03l31.29-12.56c-1.77-7.89-5.14-14.31-10.07-19.26-4.96-4.96-11-8.61-18.12-10.96-7.14-2.37-14.96-3.54-23.43-3.54-11.91 0-22.26 2.37-31.03 7.14-8.79 4.79-15.54 11.66-20.24 20.61-4.72 8.96-7.07 19.73-7.07 32.36 0 12.61 2.35 23.38 7.07 32.34 4.7 8.96 11.45 15.84 20.24 20.61 8.77 4.77 19.17 7.17 31.2 7.17 8.61 0 16.47-1.21 23.61-3.63 7.12-2.42 13.19-6.35 18.22-11.77 5-5.42 8.56-12.42 10.68-21.03l-32.2-8.66zM1003.74 174.29v23.33h65.95v-23.33h-65.95zm54.46-69.11h-43.32l-39.27 116.69h36.08l6.7-24.24 6.47-23.33 6.44-23.33 4.79-18.91h.35l4.96 19.1 6.23 23.15 6.3 23.33 6.54 24.24h37.13l-39.4-116.7zM1203.18 120.37c-9.56-10.14-23.47-15.19-41.74-15.19h-53.58v116.69h53.58c18.26 0 32.17-5.12 41.74-15.31 9.54-10.19 14.31-24.54 14.31-43.04 0-18.63-4.77-33.01-14.31-43.15zm-27.94 67.28c-3.42 5.23-9.49 7.86-18.22 7.86h-13.07v-64h13.07c8.72 0 14.8 2.63 18.22 7.86 3.42 5.26 5.12 13.28 5.12 24.15 0 10.84-1.7 18.89-5.12 24.13zM1298.82 66.09h-34.29l-17.15 29.36h23.68l10.61-15.4 10.61 15.4h23.68l-17.14-29.36zm-28.1 128.72v-18.56h46.32v-25.1h-46.32v-18.94h58v-27.03h-94.08v116.69H1331v-27.06h-60.28zM961.3 258.72l-15.73 55.32-5.84 23.17h-.35l-5.84-23.17-15.75-55.32h-50.9v116.69h31.83v-46.69l-.72-37.66h.54l25.29 84.36h28.99l25.64-84.36h.35l-.7 37.66v46.69h31.83V258.72H961.3zM1067.39 348.36V329.8h46.32v-25.1h-46.32v-18.94h58v-27.03h-94.06v116.69h96.36v-27.06h-60.3zM1212.72 258.72v69.65c0 7.07-1.54 12.38-4.58 15.91-3.07 3.54-7.61 5.3-13.63 5.3-6 0-10.54-1.77-13.61-5.3-3.07-3.54-4.58-8.84-4.58-15.91v-69.65h-36.27v67.7c0 16.98 4.54 29.69 13.63 38.11 9.07 8.42 22.68 12.66 40.83 12.66 18.05 0 31.59-4.23 40.67-12.66 9.07-8.42 13.63-21.12 13.63-38.11v-67.7h-36.09zM968.03 479.45c-4.61-4.96-11.68-8.03-21.22-9.21v-.16c8.61-1.3 14.94-4.37 19.01-9.19 4.07-4.84 6.1-10.61 6.1-17.33 0-10.26-3.51-18.01-10.52-23.26-7.03-5.23-17.84-7.91-32.45-8.03H866.9v116.69h65.77c14.14 0 24.71-2.65 31.73-7.96 7-5.3 10.52-13.03 10.52-23.17-.01-7.31-2.31-13.45-6.89-18.38zm-66.49-41.74h20.17c8.84 0 13.26 3.47 13.26 10.42 0 6.96-4.42 10.45-13.26 10.45h-20.17v-20.87zm33.06 64.1c-2.23 1.84-5.65 2.75-10.24 2.75h-22.82V483.5h22.82c4.58 0 8 .88 10.24 2.65 2.26 1.77 3.37 4.37 3.37 7.79s-1.12 6.03-3.37 7.87zM1059.97 412.26v69.65c0 7.07-1.54 12.38-4.61 15.91-3.07 3.54-7.61 5.3-13.61 5.3-6.03 0-10.56-1.77-13.61-5.3-3.07-3.54-4.61-8.84-4.61-15.91v-69.65h-36.25v67.7c0 16.98 4.54 29.69 13.61 38.11 9.07 8.42 22.71 12.66 40.85 12.66 18.03 0 31.59-4.23 40.67-12.66 9.07-8.42 13.61-21.12 13.61-38.11v-67.7h-36.05zM1179.13 457.51l-17.68-4.07c-4.12-.93-7.33-2-9.63-3.16-2.3-1.19-3.44-2.72-3.44-4.61 0-1.54.49-2.91 1.49-4.16 1-1.23 2.63-2.21 4.86-2.91 2.23-.7 5.19-1.07 8.84-1.07 7.19 0 13.77 1.28 19.73 3.82 5.93 2.54 11.56 6.03 16.87 10.52l15.75-23.17c-6.49-6.12-14.03-10.7-22.64-13.7-8.61-3-18.45-4.49-29.52-4.49-11.1 0-20.57 1.65-28.48 4.93-7.89 3.3-13.91 7.91-18.03 13.8-4.12 5.91-6.19 12.68-6.19 20.33 0 7.19 1.63 13 4.86 17.42 3.23 4.42 7.56 7.86 13.01 10.33 5.42 2.49 11.31 4.42 17.68 5.84l19.45 4.42c4.23.95 7.12 2.05 8.65 3.28 1.54 1.23 2.3 2.86 2.3 4.86 0 1.65-.47 3.07-1.42 4.23-.95 1.19-2.51 2.09-4.68 2.75-2.19.65-4.98.98-8.4.98-4.84 0-9.86-.72-15.03-2.12a73.207 73.207 0 01-14.68-5.75c-4.61-2.42-8.49-5.16-11.68-8.24l-15.56 23.87c4.37 4 9.56 7.47 15.56 10.35 6.03 2.88 12.66 5.09 19.89 6.63 7.26 1.51 14.7 2.3 22.38 2.3 9.65 0 18.31-1.49 25.99-4.42 7.65-2.95 13.7-7.37 18.12-13.26 4.42-5.91 6.63-13.26 6.63-22.1 0-9.1-2.88-16.24-8.68-21.5-5.76-5.23-14.53-9.21-26.32-11.93zM1246.13 481.38v23.33h65.95v-23.33h-65.95zM1296 373.53c-.37 3.19-.98 5.51-1.86 6.98-.88 1.49-2.28 2.21-4.16 2.21-1.65 0-3.21-.47-4.68-1.4-1.49-.95-3-2.05-4.61-3.28-1.58-1.23-3.51-2.33-5.75-3.28-2.23-.93-4.96-1.4-8.12-1.4-6.72 0-12.35 2.44-16.89 7.33-4.54 4.89-7 12.35-7.35 22.36h19.1c.35-3.16 1-5.49 1.95-6.98.93-1.47 2.3-2.21 4.07-2.21 1.63 0 3.23.47 4.77 1.42 1.54.95 3.21 2.02 5.02 3.28 1.84 1.23 3.96 2.35 6.37 3.35 2.42 1 5.28 1.51 8.58 1.51 3.89 0 7.51-1.09 10.86-3.28 3.35-2.19 6.09-5.49 8.21-9.91 2.14-4.42 3.26-9.98 3.37-16.7H1296zm4.59 38.73h-43.32l-39.25 116.69h36.06l6.72-24.24 6.44-23.33 6.47-23.33 4.77-18.91h.35l4.96 19.1 6.26 23.15 6.3 23.33 6.54 24.24h37.13l-39.43-116.7zM1451.15 438.25c-4.68-8.96-11.33-15.82-19.98-20.61-8.68-4.77-19.08-7.14-31.22-7.14-12 0-22.43 2.37-31.2 7.14-8.79 4.79-15.54 11.66-20.24 20.61-4.72 8.96-7.07 19.73-7.07 32.36 0 12.61 2.35 23.38 7.07 32.34 4.7 8.96 11.45 15.84 20.24 20.61 8.77 4.77 19.19 7.17 31.2 7.17 12.14 0 22.54-2.4 31.22-7.17 8.65-4.77 15.31-11.66 19.98-20.61 4.65-8.96 6.98-19.73 6.98-32.34 0-12.63-2.32-23.4-6.98-32.36zm-32.26 50.48c-1.54 4.77-3.91 8.35-7.07 10.77-3.19 2.42-7.14 3.63-11.86 3.63-4.82 0-8.79-1.21-11.93-3.63-3.12-2.42-5.47-6-7.07-10.77-1.58-4.79-2.37-10.82-2.37-18.12 0-7.44.79-13.52 2.37-18.22 1.61-4.72 3.95-8.28 7.07-10.7 3.14-2.42 7.12-3.63 11.93-3.63 4.72 0 8.68 1.21 11.86 3.63 3.16 2.42 5.54 5.98 7.07 10.7 1.51 4.7 2.28 10.77 2.28 18.22 0 7.3-.77 13.33-2.28 18.12zM1532.3 502.6c-3.37-2.81-8.05-4.23-14.05-4.23-5.91 0-10.49 1.42-13.8 4.23-3.3 2.84-4.96 6.72-4.96 11.68 0 5.07 1.65 9 4.96 11.84 3.3 2.84 7.89 4.23 13.8 4.23 6 0 10.68-1.4 14.05-4.23 3.35-2.84 5.03-6.77 5.03-11.84-.01-4.96-1.68-8.84-5.03-11.68zm30.59-77.45c-4.19-4.93-9.91-8.63-17.17-11.05-7.24-2.4-15.4-3.61-24.47-3.61-10.84 0-19.77 1.44-26.8 4.33-7 2.88-12.45 6.84-16.35 11.84-3.89 5-6.58 10.59-8.12 16.7l34.83 10.96c.7-5.19 2.21-9.07 4.51-11.66 2.3-2.61 5.51-3.89 9.63-3.89 3.89 0 6.77.84 8.65 2.56 1.88 1.7 2.84 4.21 2.84 7.51 0 2.58-.88 4.96-2.65 7.07-1.77 2.12-4.68 3.82-8.75 5.12s-9.58 2.19-16.54 2.65l-.16 27.06h30.57l2.49-13.96c6.23-.72 11.91-2.19 16.96-4.44 5.07-2.23 9.14-5.68 12.21-10.33 3.05-4.65 4.58-10.63 4.58-17.94 0-7.66-2.09-13.96-6.26-18.92z"/></g><path fill="#FBC62B" d="M484.73 349.2c3.81.58 7.61 1.11 11.44 1.59v-.02c-3.82-.48-7.63-1-11.44-1.57zm-57.24-103.24c.54-.16 1.19-.28 1.93-.36-.74.06-1.39.18-1.93.36zm-1.79 1.01a3.5 3.5 0 011.01-.7c-.41.17-.73.39-1.01.7zm-220.34-27.5c-26.49 0-52.99.04-79.48-.04-6.2-.02-11.06 2.09-14.3 7.53-.36.62-.5 1.93-1.79.95v152.41c57.68 0 115.39.02 173.07 0 8.04.02 16.09.02 24.13.02-5.24-17.38-8.16-35.75-8.38-54.78-4.35 0-8.68.02-13.03 0-4.99-.02-5.88-.91-5.88-5.84-.02-13.72-.02-27.45-.02-41.19 0-9.02.02-18.05.02-27.07 0-4.75 1.15-5.96 5.84-5.96h3.73c8.46-.02 16.94.02 25.4-.02 1.07-2.5 2.2-4.95 3.36-7.39 3.08-6.4 6.51-12.63 10.27-18.61H205.36zm-15.72 65.92c0 12.08-.1 24.15.06 36.21.06 3.12-.89 4.07-3.99 4.03-13.88-.14-27.75-.04-41.63-.08-4.79-.02-5.86-1.09-5.86-5.94-.04-22.62-.02-45.26 0-67.88 0-5.02 1.19-6.24 6.06-6.24 13.88-.04 27.75.04 41.63-.08 2.88-.02 3.83.83 3.79 3.77-.14 12.07-.06 24.15-.06 36.21zm64.15 34.55c0 4.53-1.13 5.6-5.74 5.62-13.88.04-27.75-.1-41.63.1-3.46.04-4.13-1.27-4.09-4.37.14-11.94.06-23.87.06-35.81 0-12.06.06-24.15-.06-36.21-.02-2.82.73-3.89 3.71-3.85 14.02.14 28.04.04 42.05.08 4.39.02 5.7 1.33 5.7 5.76.04 22.88.04 45.78 0 68.68z"/><path fill="#FBC62B" d="M324.25 420.56c-8.6-.02-17.22-.02-25.82-.02h-.3c-25.28-.02-50.55-.02-75.85-.02-.48-20.85-17.38-37.38-37.24-35.95-19.25 1.41-33.76 15.75-34.54 36.05-7.71-.04-15.43-.22-23.12-.04-6.99.16-12.79-1.61-16.27-8.2-.26-.48-.7-.83-1.31-.4v-31.66c57.68 0 115.39.02 173.07 0 8.04.02 16.09.02 24.13.02.22.73.46 1.47.68 2.2 1.05 3.32 2.18 6.63 3.4 9.87a195.22 195.22 0 0013.17 28.15z"/><path fill="#E9E1CE" d="M185.03 384.57c-19.25 1.41-33.76 15.75-34.54 36.05.16 1.51.22 3.04.44 4.53 3.3 22.38 24.77 35.93 46.43 29.43 13.64-4.09 25.22-18.01 24.91-34.06-.48-20.85-17.38-37.38-37.24-35.95zm.26 51.4c-7.73 0-15.61-8.36-14.44-15.33-.04-9.04 6.51-15.85 15.75-15.63 8.5.22 15.39 7.07 15.33 15.47-.04 8.94-7.35 15.49-16.64 15.49z"/><path fill="#FBC62B" d="M521.47 245.33c-10.63-.02-21.29-.04-31.92-.08-1.65-8.56-3.32-17.1-4.98-25.66 7.43-.54 14.86-.56 22.28.02 5.34.44 10.47 5.18 11.76 10.76 1.15 4.95 1.93 9.97 2.86 14.96z"/><path fill="#E9E1CE" d="M426.71 246.26c-.38.18-.73.42-1.01.7.28-.3.6-.52 1.01-.7zM429.42 245.6c-.75.08-1.39.2-1.93.36.54-.18 1.19-.3 1.93-.36zM496.17 350.77v.02c-3.83-.48-7.63-1.01-11.44-1.59 3.81.57 7.62 1.09 11.44 1.57zM314.66 245.47a193.916 193.916 0 00-16.03 73.96c-.02.87-.02 1.71-.02 2.56-.02.62-.02 1.25-.02 1.87 0 .56 0 1.13.02 1.69-4.35 0-8.68.02-13.03 0-4.99-.02-5.88-.91-5.88-5.84-.02-13.72-.02-27.45-.02-41.19 0-9.02.02-18.05.02-27.07 0-4.75 1.15-5.96 5.84-5.96h3.73c8.45-.02 16.93.02 25.39-.02zM189.65 285.4c0 12.07-.1 24.15.07 36.22.04 3.11-.89 4.05-4 4.02-13.88-.15-27.76-.04-41.63-.08-4.78-.01-5.85-1.09-5.85-5.95-.03-22.62-.03-45.24 0-67.86.01-5.02 1.2-6.24 6.06-6.26 13.88-.04 27.76.06 41.63-.07 2.88-.03 3.83.82 3.79 3.76-.16 12.07-.07 24.14-.07 36.22zM202.39 285.48c0-12.07.07-24.15-.05-36.22-.03-2.82.72-3.88 3.72-3.85 14.01.14 28.03.03 42.05.08 4.39.02 5.69 1.33 5.7 5.75.04 22.9.04 45.79 0 68.69-.01 4.53-1.13 5.6-5.74 5.62-13.88.04-27.76-.09-41.63.1-3.47.05-4.13-1.26-4.1-4.37.13-11.93.05-23.87.05-35.8z"/><path fill="#E5007D" d="M441.77 363.6c-.02 3.22-1.73 5.56-5.1 6.12-2.32.36-4.69.38-7.01.54-2.24-.16-4.47-.14-6.65-.54-3.28-.58-5.06-2.74-5.1-6.08-.04-3.18 1.59-5.44 4.65-6.04 4.77-.93 9.67-.89 14.44 0 3.14.56 4.79 2.96 4.77 6zM170.85 420.64c-.03-9.05 6.51-15.85 15.76-15.62 8.49.21 15.38 7.06 15.33 15.47-.05 8.94-7.36 15.49-16.65 15.49-7.72-.01-15.6-8.38-14.44-15.34z"/><g><path fill="#FBC62B" d="M624.61 363.71c-.07-.24-.09-.46-.11-.66v-.02c-1.07-.14-2.13-.28-3.19-.41-3.4-.45-6.79-.89-10.18-1.39-4.45-.66-8.88-1.37-13.28-2.16-1.21-.22-2.42-.44-3.63-.68l-3.37-.66c-.2-.04-.4-.07-.59-.11-1.92-.4-3.83-.81-5.73-1.23-3.99-.9-7.93-1.89-11.87-3-1.19-.33-2.36-.66-3.55-1.01-.86-.26-1.72-.53-2.6-.79-.86-.26-1.7-.53-2.56-.81-1.81-.57-3.59-1.19-5.4-1.85-1.17-.4-2.33-.84-3.5-1.28a175.29 175.29 0 01-13.74-5.9 52.7 52.7 0 01-4.3-2.33c-2-1.26-3.79-2.58-5.35-4.03-.51-.48-1.01-.99-1.48-1.5-.48-.53-.92-1.06-1.34-1.59-.42-.53-.79-1.06-1.17-1.61-.04-.07-.09-.13-.13-.2-.35-.53-.68-1.06-.97-1.63-.33-.57-.64-1.19-.9-1.81-.18-.42-.35-.84-.51-1.28-.18-.44-.31-.88-.46-1.32-.31-.95-.57-1.92-.77-2.93-.11-.53-.22-1.06-.31-1.61s-.18-1.1-.22-1.65c-.07-.53-.13-1.1-.15-1.67-.02-.2-.02-.4-.04-.59-.04-.75-.07-1.54-.07-2.33 0-.44 0-.88.02-1.32.77-28.39.22-56.81.24-85.22 0-.4 0-.79.02-1.17 0-.37 0-.75.02-1.1 0-.33.02-.68.04-1.01.04-.66.09-1.26.18-1.81.04-.29.09-.55.13-.81.04-.26.09-.51.15-.75.04-.24.11-.46.2-.68.07-.22.15-.44.24-.66.09-.22.2-.4.29-.59.15-.29.33-.53.51-.77 0 0 .02 0 .02-.02.09-.11.2-.22.31-.33.53-.55 1.17-.95 1.96-1.26.48-.18 1.01-.33 1.59-.44.2-.04.4-.09.62-.11.29-.07.59-.11.9-.13.13-.02.29-.02.44-.04.22-.02.46-.04.73-.07 1.06-.07 2.25-.09 3.57-.09 26.67.04 53.33.13 79.98.18l-.09-.51c-2.31-12-4.65-24.01-6.96-36.01-2.53-.07-5.07-.18-7.6-.18H352.98c-6.7 8.39-12.84 17.27-18.39 26.52-1.98 3.28-3.88 6.61-5.68 10 9.93-.02 19.85.02 29.78.02 9.54 0 19.05-.02 28.59-.13 4.54-.07 5.57 1.54 5.53 5.73-.2 16.94-.09 33.88-.09 50.82 0 16.54-.13 33.11.09 49.65.07 4.6-.93 6.52-6.06 6.43-19.27-.26-38.55-.07-57.82-.13-1.06 0-1.96-.04-2.78-.13-4.56-.4-5.46-2.18-5.46-8.06-.04-27.89-.04-55.79-.02-83.7v-3.52a91.04 91.04 0 00-1.52 3.52c-5.48 13.06-9.85 26.7-12.97 40.79-3.46 15.62-5.37 31.76-5.59 48.33-.33 23.9 2.84 47 9.01 68.86 1.01 3.63 2.11 7.22 3.33 10.79 8.96.02 17.91.02 26.87 0 23.63.02 47.29.02 70.93.02h198.26c10.84 0 15.55-4.76 15.64-15.7.05-8.43-.02-16.8-.02-25.17zm-141.85-69.03c.02 2.6.02 5.18 0 7.78 0 5.64 0 11.28-.02 16.94 0 6.74-1.56 8.24-8.3 8.24-19.47.07-38.97-.11-58.44.13-3.7.04-4.96-1.04-5.31-3.66v-.04c-.07-.59-.09-1.3-.09-2.07.04-4.01.07-8.02.09-12.05.02-7 .02-13.99.02-20.97 0-5.95-.02-11.89-.02-17.82v-8.68c.02-2.86.02-5.73 0-8.57.02-9.43.04-18.83-.07-28.28-.02-.2 0-.37 0-.55 0-1.39 0-2.78-.02-4.16-.04-3.99.66-5.77 5.09-5.79h.26c19.47.26 38.94.09 58.41.13 6.63.02 8.37 1.7 8.37 8.33 0 3.35.02 6.72 0 10.07.04 17.49.07 35 .02 52.49.03 2.82.03 5.69.01 8.53zM541 389.61c-3.24.53-6.56.55-9.82.79-3.15-.24-6.28-.22-9.32-.77-4.6-.84-7.11-3.85-7.18-8.55-.04-4.45 2.25-7.64 6.56-8.48 6.7-1.3 13.55-1.26 20.26-.02 4.38.81 6.7 4.16 6.67 8.44-.01 4.52-2.46 7.82-7.17 8.59z"/><path fill="#FBC62B" d="M680.71 367.1v79.49c-2.73-1.17-2.58 1.59-3.3 2.69-4.69 7.11-11.08 11.28-19.67 11.43-11.41.2-22.82.15-34.23.2 0-3.72-.35-7.38-1.21-10.99-6.61-28.28-32.6-42.34-53.99-39.08-27.89 4.27-43.33 21.94-45.55 50.22-14.8-.02-29.6-.02-44.41-.02-21.85-.02-43.7-.04-65.55-.04-13.81-.02-27.62-.02-41.45-.02-8.13-.02-16.26-.02-24.38-.02h-6.54c-4.3-6.5-8.28-13.24-11.96-20.15a234.533 234.533 0 01-15.55-36.3c8.96.02 17.91.02 26.87 0 23.63.02 47.29.02 70.93.02h198.26c10.84 0 15.55-4.76 15.64-15.7.07-8.37 0-16.74 0-25.11 1.17.07 2.31.09 3.46.15 1.15.04 2.29.13 3.46.24 16.33 1.65 32.7 3.23 49.17 2.99z"/><path fill="#E9E1CE" d="M622.3 449.92c-6.61-28.28-32.6-42.34-53.99-39.08-27.89 4.27-43.33 21.94-45.55 50.22 1.83 29.41 22.97 50.18 50.84 49.91 27.86-.26 48.77-21.21 49.91-50.07 0-3.71-.35-7.37-1.21-10.98zm-49.03 32.69c-11.96.11-22.03-9.91-21.98-21.89.07-11.85 9.65-21.39 21.61-21.52 11.92-.13 21.61 9.21 21.94 21.15.32 11.93-9.57 22.15-21.57 22.26z"/><path fill="#FBC62B" d="M660.03 215.05l-44.82-.12c-2.32-12.01-4.65-24.01-6.97-36.02 10.42-.75 20.86-.79 31.26.04 7.49.6 14.7 7.26 16.51 15.09 1.6 6.95 2.7 14 4.02 21.01z"/><path fill="#E9E1CE" d="M680.71 367.11c-16.47.24-32.83-1.35-49.19-3.01-2.3-.24-4.62-.26-6.91-.4-.05-.24-.08-.45-.11-.66-28.61-3.62-56.84-8.6-83.2-21.32-12.61-6.1-18.53-14.88-18.13-29.4.77-28.39.21-56.82.24-85.24 0-10.16 1.74-11.88 11.9-11.85 26.68.05 53.33.13 79.99.18l-.08-.5c14.94.05 29.87.08 44.81.13 6.89 50.7 13.78 101.39 20.68 152.07zM392.8 321.33c.07 4.6-.93 6.52-6.06 6.43-19.27-.26-38.55-.07-57.82-.13-1.06 0-1.96-.04-2.78-.13-4.56-.4-5.46-2.18-5.46-8.06-.04-27.89-.04-55.79-.02-83.7v-12.09c.02-6.7 1.61-8.37 8.19-8.39h.04c9.93-.02 19.85.02 29.78.02 9.54 0 19.05-.02 28.59-.13 4.54-.07 5.57 1.54 5.53 5.73-.2 16.94-.09 33.88-.09 50.82.01 16.53-.12 33.09.1 49.63zM410.68 337.94c0-36.71.11-73.41-.08-110.11-.05-8.94.68-12.83 5.35-12.69 19.47.58 38.95.17 58.42.28 6.61.04 8.36 3.7 8.37 18.22.06 70 .06 139.99 0 209.99-.01 14.8-1.57 18.05-8.32 18.09-19.47.12-38.95-.26-58.42.26-4.58.12-5.46-3.57-5.41-12.65.21-37.13.09-74.26.09-111.39z"/><path fill="#E5007D" d="M531.18 390.4c-3.16-.24-6.29-.21-9.33-.76-4.61-.83-7.12-3.85-7.17-8.56-.05-4.45 2.25-7.63 6.55-8.46 6.7-1.3 13.55-1.26 20.27-.02 4.38.81 6.69 4.16 6.67 8.43-.02 4.52-2.45 7.82-7.17 8.59-3.24.52-6.57.54-9.82.78zM572.89 439.19c11.92-.13 21.62 9.22 21.95 21.15.33 11.94-9.56 22.15-21.57 22.27-11.97.11-22.04-9.91-21.98-21.88.06-11.86 9.64-21.41 21.6-21.54z"/></g><g><path fill="#E4067D" d="M-163.15 498.43c1.89 0 3.49-1.6 3.49-3.49 0-1.89-1.6-3.49-3.49-3.49-1.89 0-3.49 1.6-3.49 3.49 0 1.9 1.6 3.49 3.49 3.49z"/></g><g><path fill="#E9E1CE" d="M311.11 229.62h-1.61c-1.19 2.84-2.33 5.68-3.4 8.56a251.153 251.153 0 00-10.31 34.52c0 16.26 0 32.5.02 48.76 0 6.1 1.12 7.21 7.26 7.24 4.61.02 9.19 0 13.8 0 0-.72 0-1.44.02-2.16 0-.98 0-1.95.02-2.95.54-30.24 7.1-59.11 18.52-85.43 1.23-2.88 2.54-5.72 3.88-8.54-9.38.02-18.8 0-28.2 0zm-5 8.56a251.153 251.153 0 00-10.31 34.52c-.26 1.21-.54 2.42-.77 3.63 0 15.87 0 31.73.02 47.58 0 5.7 1.02 6.72 6.79 6.75 5.02.02 10.03 0 15.05 0-.02-.65-.02-1.3-.02-1.95 0-.72 0-1.44.02-2.16 0-.98 0-1.95.02-2.95.54-30.24 7.1-59.11 18.52-85.43-9.75.03-19.55-.02-29.32.01zM864.55 624.6L735.17 495.22c39.39-44.78 63.3-103.55 63.3-167.92 0-141.66-115.83-256.26-257.98-254.25-78.82 1.09-149.29 38.6-195.26 96.36-7.07 8.86-13.56 18.24-19.43 28.01-2.09 3.47-4.09 6.98-6 10.56-.02.05-.05.09-.07.14-3.12 5.79-6 11.7-8.63 17.77-.56 1.23-1.09 2.47-1.61 3.72-1.19 2.84-2.33 5.68-3.4 8.56a251.153 251.153 0 00-10.31 34.52c-.26 1.21-.54 2.42-.77 3.63a251.1 251.1 0 00-5.14 47.41c-.33 24.31 2.77 47.85 8.82 70.16.23.86.47 1.72.7 2.56 1.07 3.84 2.23 7.63 3.51 11.4a247.49 247.49 0 0013.42 32.5c.98 1.95 1.98 3.91 3 5.84 3.88 7.3 8.1 14.42 12.63 21.29 45.5 68.77 123.53 114.13 212.19 114.13 63.74 0 122-23.45 166.64-62.21l129.47 129.47c6.7 6.7 17.56 6.7 24.26 0 3.35-3.35 5.03-7.75 5.03-12.14s-1.64-8.76-4.99-12.13zm-315.47-68.87c-75 1.4-141.94-33.45-184.44-88.22a226.433 226.433 0 01-14.68-21.29 193.65 193.65 0 01-3.44-5.84 225.748 225.748 0 01-15.21-32.52c-1.42-3.75-2.72-7.56-3.93-11.4-.26-.84-.54-1.7-.79-2.54-6.05-20.08-9.42-41.29-9.68-63.28-.02-.65-.02-1.3-.02-1.95 0-.72 0-1.44.02-2.16 0-.98 0-1.95.02-2.95.54-30.24 7.1-59.11 18.52-85.43 1.23-2.88 2.54-5.72 3.88-8.54 3.56-7.4 7.51-14.59 11.86-21.5.02-.05.05-.07.07-.12 2.21-3.61 4.56-7.12 7-10.59 6.98-9.93 14.75-19.31 23.24-28.01 40.5-41.76 96.78-68.19 158.92-69.35 129.28-2.4 234.57 102.9 232.18 232.18-2.27 121.85-101.68 221.26-223.52 223.51zM306.11 238.18a251.153 251.153 0 00-10.31 34.52c-.26 1.21-.54 2.42-.77 3.63 0 15.87 0 31.73.02 47.58 0 5.7 1.02 6.72 6.79 6.75 5.02.02 10.03 0 15.05 0-.02-.65-.02-1.3-.02-1.95 0-.72 0-1.44.02-2.16 0-.98 0-1.95.02-2.95.54-30.24 7.1-59.11 18.52-85.43-9.75.03-19.55-.02-29.32.01zm5-8.56h-1.61c-1.19 2.84-2.33 5.68-3.4 8.56a251.153 251.153 0 00-10.31 34.52c0 16.26 0 32.5.02 48.76 0 6.1 1.12 7.21 7.26 7.24 4.61.02 9.19 0 13.8 0 0-.72 0-1.44.02-2.16 0-.98 0-1.95.02-2.95.54-30.24 7.1-59.11 18.52-85.43 1.23-2.88 2.54-5.72 3.88-8.54-9.38.02-18.8 0-28.2 0z"/></g></svg>
