<svg viewBox="0 0 4194 3222" xmlns="http://www.w3.org/2000/svg" fill-rule="evenodd" clip-rule="evenodd" stroke-miterlimit="10"><path fill="#f4f2ee" stroke="#000" stroke-width="3.7083363" d="M18.593 18.616h4156.666v276.067H18.593zM133.193 2899.09h3937.903v67.709H133.193z"/><path fill="#f4f2ee" stroke="#000" stroke-width="3.7083363" d="M482.183 294.658H419.68v2604.431h62.504zM3774.201 294.658h-62.512v2604.431h62.512zM1513.545 664.492H565.54v1776.214h948.005z"/><path fill="#e9e1d1" stroke="#000" stroke-width="3.7083363" d="M1481.597 698.916H596.872v1709.539h884.725z"/><path fill="#f4f2ee" stroke="#000" stroke-width="3.7083363" d="M2576.15 664.492h-948.014v1776.214h948.014z"/><path fill="#e9e1d1" stroke="#000" stroke-width="3.7083363" d="M2544.204 698.916h-884.717v1709.539h884.717z"/><path fill="#f4f2ee" stroke="#000" stroke-width="3.7083363" d="M3629.5 664.492h-948.004v1776.214H3629.5z"/><path fill="#e9e1d1" stroke="#000" stroke-width="3.7083363" d="M3597.569 698.916h-884.726v1709.539h884.726z"/><path fill="#f4f2ee" stroke="#000" stroke-width="3.7083363" d="M565.529 1062.979h-83.342v33.854h83.342zM565.529 2010.977h-83.342v33.854h83.342zM1628.132 1062.979h-114.6v33.854h114.6zM1628.132 2010.977h-114.6v33.854h114.6zM2681.489 1062.979h-105.35v33.854h105.35zM2681.489 2010.977h-105.35v33.854h105.35zM3711.678 1062.979h-82.175v33.854h82.175zM3711.678 2010.977h-82.175v33.854h82.175z"/><path d="M1242.14 834.233h174.771v286.492l-762.83 707.755v-445.584l588.059-548.663zM1416.9 1256.151v270.859l-762.829 684.43v-264.684l762.83-690.605zM1807.84 2349.901l653.717-588.483V1598.2l-701.9 622.217v163.263l48.183-33.78zM2784.506 1657.242v421.913l765.696-696.255V954.046l-765.696 703.196z" fill="#f4f2ee" fill-rule="nonzero"/><path fill="#ffed00" stroke="#000" stroke-width="3.7083363" d="M3119.601 2010.986h-1958.53v397.471H3119.6zM3206.413 2532.728H1077.728v31.254h2128.685zM1268.18 2563.982h-41.672v332.5h41.671zM1388.548 2563.982h-41.67v332.5h41.67z"/><path fill="#ffed00" stroke="#000" stroke-width="3.7083363" d="M1463.78 2408.44h-41.672v124.284h41.671zM2953.147 2563.982h-41.67v332.5h41.67zM3078.434 2563.982h-41.671v332.5h41.67zM2865.509 2408.44h-41.671v124.284h41.67z"/><path d="M1947.61 1655.908v-19.1s-23.488-15.634-16.954-20.834c6.537-5.216 7.908-20.837 7.908-20.837v-20.834l15.992-13.891 29.517-22.58h45.141l20.838-10.416 13.896-15.625h36.454l10.425 29.517 20.829 27.779v114.6h-17.363v-29.517l-5.204-29.517-5.208-17.362-27.788 13.883-19.091 10.425-26.421 8.684s-27.404 6.95-32.625 6.95h-27.775l-5.208 22.558-15.625 5.208-1.738-19.091z" fill="#e6007e" fill-rule="nonzero" stroke="#000" stroke-width="3.7083363"/><path d="M2131.66 1683.686v23.875l-16.492 6.512v39.063l-7.816 11.717-15.625 20.833-20.838 15.633-22.137 7.817h-27.342l-20.842-16.938-16.925-22.125-9.112-23.662v-11.508l-18.234-9.113-5.208-24.742-1.737-26.037 15.625-5.217 5.204-22.562h27.779l32.625-6.946 26.417-8.688 19.091-10.425 27.788-13.883 5.208 17.362 3.73 21.117 1.478 18.167v19.75h17.363z" fill="#eeaecf" fill-rule="nonzero" stroke="#000" stroke-width="3.7083363"/><path d="M2070.89 1801.32l-3.467 11.728v11.275l5.205 18.863 11.287 11.525 9.546 6.087v11.275s-5.208 2.609-8.68 3.467c-3.474.87-10.42 5.217-13.891 6.087-3.467.863-12.154 2.6-12.154 2.6l-11.284 3.48s-8.687.866-11.287 0c-2.608-.871-19.1 0-19.1 0l-17.363-6.08-13.025-4.337-8.675-6.946 9.546-7.817 9.546-6.945 6.946-9.546 4.012-19.971v-27.78l13.35 10.85h27.355l22.133-7.816z" fill="#eeaecf" fill-rule="nonzero" stroke="#000" stroke-width="3.7083363"/><path d="M1859.93 2063.933l-21.488-6.512-17.583-9.113-7.808-11.725 7.808-26.041 6.513-12.367 7.812-22.792 6.513-18.233 15.625-33.862 14.329-15.625 28.646-26.046 11.72-6.504 17.492-5.217h48.488l8.687 6.946 30.375 10.416h19.1l22.571-3.466 20.675-6.421 14.059-5.738v-11.283h38.195l35.592 9.546 13.025 5.217 15.625 12.533 13.02 16.117 16.93 24.733 9.113 14.33 14.325 24.095 6.512 21.48 6.513 15.62 8.25 14.33 6.57 20.212-30.441 7.129-18.234 18.241h-5.708s-4.717-9.479-5.575-11.22c-.87-1.73-3.48-13.459-3.48-13.459l-13.45-17.796-7.382-7.383-7.38-11.275-9.12-10.858-15.188-5.642-11.72-5.208-16.492-8.688-14.763-2.162-7.375.866 35.596.796s3.033-83.82 0-83.82c-3.046 0-115.838 22.141-115.838 22.141l-117.262-16.575v80.17l-9.992 8.576-9.546 16.492-15.62 46.445-18.234 18.6z" fill="#e5087e" fill-rule="nonzero" stroke="#000" stroke-width="3.7083363"/><path d="M1913.32 1893.656l117.263 16.575 115.837-22.142v217.967l-115.837 50.77-117.263-25.908v-237.262z" fill="#ffed00" fill-rule="nonzero" stroke="#000" stroke-width="3.7083363"/><path d="M1780.93 2212.831l3.47-26.75s3.947-18.333 6.51-23.92c4.145-9.01 22.137-32.376 22.137-32.376l23.437-36.596 11.721-19.691 23.45-28.146 6.5-21.121 9.12-16.888 15.626-29.554s21.92-30.425 32.558-35.187c7.217-3.23 31.246 0 31.246 0s8.825-1.48 11.296 0c6.162 3.716 12.958 9.137 10.85 28.145-.63 5.692-10.85 19.705-10.85 19.705l-19.1 9.85-29.388 29.562-26.612 29.554-23.442 66.15-14.316 30.967-15.634 32.367-20.829 42.225s-10.437 25.17-15.633 32.375c-6.021 8.346-29.296 28.15-29.296 28.15s-9.017 5.817-12.375 5.62c-3.35-.2-9.742-4.103-11.721-7.037-3.913-5.8-5.208-28.146-5.208-28.146v-22.516s-1.009-34.892 0-46.446c1.312-14.984 10.425-59.117 10.425-59.117l11.72-32.375s9.184-32.43 14.317-42.217c4.342-8.266 22.138-29.554 22.138-29.554l7.816 12.667 17.584 9.85 21.487 7.037" fill="#eeaecf" fill-rule="nonzero" stroke="#000" stroke-width="3.7083363"/><path d="M2030.58 2156.83v-246.6" fill="none" stroke="#000" stroke-width="3.7083363"/><path d="M2307.89 2223.237c0-13.763-11.692-38.842-17.25-51.45-3.008-6.796-9.908-19.525-13.517-26.038-7.196-12.996-25.391-37.396-33.041-50.133-6.225-10.363-20.913-31.063-26.696-41.671-2.338-4.296-7.492-12.6-9.767-16.93-3.525-6.695-8.733-21.108-13.025-27.34-2.67-3.897-9.517-10.51-13.02-13.676-2.75-2.496-8.705-6.946-11.722-9.117-3.804-2.75-11.645-7.929-15.625-10.416-1.912-1.204-5.845-3.45-7.816-4.563-2.1-1.175-6.325-3.458-8.463-4.55-2.412-1.25-7.12-4.162-9.766-4.783-2.38-.546-7.4-.592-9.759 0-3.708.946-10.166 5.496-13.025 8.03-1.562 1.387-4.525 4.553-5.216 6.52-.75 2.146-.03 6.837 0 9.112.037 2.275-.567 6.913 0 9.113.933 3.596 4.92 10.062 7.166 13.025 1.954 2.57 5.867 7.842 8.467 9.767 2.146 1.583 7.362 3.145 9.767 4.32 5.3 2.571 15.733 8.092 20.829 11.063 3.508 2.042 10.796 5.854 13.675 8.713 5.8 5.733 14.125 20.062 17.796 27.341 3.291 6.513 7.733 20.48 10.204 27.346 3.033 8.425 8.591 25.463 11.716 33.854 2.455 6.575 7.521 19.667 10.417 26.046 4.45 9.817 13.975 29.196 19.538 38.417 4.52 7.504 15.25 21.404 20.183 28.646 5.158 7.579 14.604 23.329 20.183 30.608 4.634 6.033 14.067 18.263 20.192 22.783 3.45 2.563 15.62 7.163 15.62 7.163s7.838 3.412 10.63 3.475c3.092.067 9.454-2.654 11.842-3.475 2.812-.963 7.391-5.775 9-7.817 4.762-6.05 8.316-8.754 8.9-11.712 1.091-5.496 3.179-12.375 2.608-29.304-.287-8.28-4.692-19.834-6.08-27.992-1.016-6.013-8.47-24-9.766-29.959-1.629-7.445-5.8-22.154-8.466-29.295-4.884-13.109-17.738-38.017-23.446-50.792-3.175-7.113-9.03-21.588-12.367-28.646-4.258-8.992-8.492-33.337-18.233-35.4-4.913-1.037-20.046 9.37-23.875 12.617-5.838 4.937-22.846 12.691-22.846 20.329" fill="#eeaecf" fill-rule="nonzero" stroke="#000" stroke-width="3.7083363"/><path d="M1879.46 2125.572v148.455l-7.846 33.854-15.158 23.442-12.154 25.175 13.012 13.895 52.096 17.363h65.113l55.341-16.496 27.13-14.762 20.833-14.763 33.854-20.83 25.18-15.624 23.437-13.892 13.896-12.154 11.1-11.288 9.729-11.283v-136.967l-9.73-30.829-7.408-19.296-9.816-16.9-7.984-10.441-13.67-8.705v72.53l-115.838 50.77-117.263-25.908v-77.254l-10.416 10.7-18.592 48.546-4.846 12.662z" fill="#e6007e" fill-rule="nonzero" stroke="#000" stroke-width="3.7083363"/><path d="M1819.99 2465.011v-59.033l8.675-26.909 15.633-22.57 20.184 16.27 18.887 6.3 26.042 8.675h65.108l38.73-11.541 31.091-12.821 33.496-21.646 33.854-20.83 38.663-23.624 9.954-5.905-25.883 25.155-21.875 13.05-22.163 18.362-18.637 15.438-33.855 24.362-37.333 11.288-50.683 16.408-8.342 2.692-26.917 21.7v8.687l-21.487 16.492-16.3 8.25-15.004 9.112-16.088-6.512-21.467-2.542-4.283-8.308z" fill="#ffed00" fill-rule="nonzero" stroke="#000" stroke-width="3.7083363"/><path d="M1914.62 2448.52l-21.488 16.492-16.3 8.25-12.345 9.113 6.508 22.146 5.837 10.416 2.63 8.463h17.583l17.575-8.463 29.95-11.075 2.175-7.591-9.333-15.192-17.584-19.533-5.208-13.025z" fill="#eeaecf" fill-rule="nonzero" stroke="#000" stroke-width="3.7083363"/><path d="M1861.84 2482.378l-16.088-6.512-32.954-3.904-24.525-3.255h-81.983l-13.8 6.834-9.192 6.837-13.025 9.767-3.07 12.38v11.707l6.133 17.596 10.729 6.5 22.225 9.113h88.117l29.379-2.6 18.129-5.217 13.025-3.246 6.9-3.904 17.63-11.07-9.963-18.88-7.667-22.146zM1797.254 2496.272s-6.512 16.058 0 25.504M1812.254 2496.272s-6.512 16.058 0 25.504M1780.734 2496.322s-6.512 16.058 0 25.504" fill="#e6007e" fill-rule="nonzero" stroke="#000" stroke-width="3.7083363"/><path d="M1897.04 2523.391h-17.575l-37.554 18.234 22.57 12.429 41.134 16.875 35.046 4.337 32.996 4.338 26.908.87 23.442 2.61 10.412 4.337 7.18 2.904 6.079 48.616v47.75l10.412 49.488 5.217 32.983 13.016 39.942 12.155 54.696 6.945 20.833 5.209 32.984 3.47 17.362h34.734l27.775-6.066 18.233-2.609 32.117-5.208 17.363-3.48 10.425-3.466s-3.48-13.896-5.217-17.362c-1.73-3.48-19.092-39.063-19.092-39.063l-8.254-39.075-17.796-39.063-6.075-85.95.425-50.441-.658-44.28 1.304-18.879 2.608-9.108 7.159-39.075 1.083-26.908-8.675-36.242-16.937-14.538-21.117-5.654-7.983 2.259-36.492 11.033-26.975 6.237-30.192 7.084-21.55 3.275-13.025-.054-2.162 7.591-46.688 10.325h-21.7l-2.175 7.604-47.525 19.525z" fill="#ffed00" fill-rule="nonzero" stroke="#000" stroke-width="3.7083363"/><path d="M2195.03 2256.662l23.438-13.025 14.766-7.816 21.034-5.325 8.362 13.079 7.5 10.92 13.738 16.717 10.979 8.567 15.42 6.392h13.43l4.708-1.73 9.008-7.816 6.071-7.088 5.521-11.2 2.721-14.7v-11.716l10 5.641 6.937 15.621v32.988l-13.887 39.941-5.77 10.413-42.847 25.18-24.308 20.832-30.388 15.634-28.712 12.587-42.475 16.059-61.642 29.516-52.087 14.763-36.675 11.275-26.696 5.217-34.734 8.679h-21.7l-16.087-23.442-10.821-11.283-5.208-13.025v-8.675l26.908-21.713 59.033-19.092 37.334-11.283 33.854-24.375 40.8-33.792 29.083-17.358 28.213-24.312 15.437-19.971 9.742-11.284z" fill="#ffed00" fill-rule="nonzero" stroke="#000" stroke-width="3.7083363"/><path d="M2368.66 2286.175v49.05l-4.775 35.596-23.87 45.575-25.172 23.437-23.875 23.875-44.804 30.388-23.57 14.316-23.442 23.442.02-20.129 1.071-6.78-3.9-16.278-4.783-19.963-16.93-14.542-21.124-5.641-34.863 7.808 16.304-7.808 25.367-12.146 51.113-21.33 24.691-10.15 33.196-15.908 29.583-21.062 14.4-10.417 23.513-13.808 17.967-17.596 6.787-19.525 7.096-20.404z" fill="#ffed00" fill-rule="nonzero" stroke="#000" stroke-width="3.7083363"/><path d="M2145.44 2933.802l23.275-4.467 22.18-4.208 23.44-1.863 5.363 41.563 4.413 29.283v12.288h-53.188l-10.312-23.08-7.408-18.491-7.763-31.025z" fill="#eeaecf" fill-rule="nonzero" stroke="#000" stroke-width="3.7083363"/><path d="M2166.79 3006.394l-9.12 50.254v99.392l4.562 25.68 20.837 16.75 17.575 4.47h28.65l22.134-10.058 10.425-21.217v-31.267l-11.721-43.558-10.859-44.667v-22.329l-9.979-23.45h-62.504zM2190.26 3105.907s16.058 6.513 25.5 0M2190.26 3090.917s16.058 6.513 25.5 0M2190.31 3122.427s16.058 6.513 25.5 0" fill="#e6007e" fill-rule="nonzero" stroke="#000" stroke-width="3.7083363"/></svg>
