<svg viewBox="0 0 117 117" xmlns="http://www.w3.org/2000/svg" fill-rule="evenodd" clip-rule="evenodd" stroke-linejoin="round" stroke-miterlimit="1.414"><title>Pesquisar</title><g transform="translate(-5180.75 -17339.5) scale(5.55556)"><clipPath id="a"><path clip-rule="nonzero" d="M932.535 3121.11h20.977v21.841h-20.977z"></path></clipPath><g clip-path="url(#a)"><path d="M935.563 3124.14c2.307-2.24 5.983-2.24 8.218 0 2.234 2.3 2.234 5.98 0 8.21-2.235 2.24-5.911 2.24-8.218 0-2.235-2.23-2.235-5.91 0-8.21m1.081 6.27c.289.5-.576 1.01-.865.43-2.018-3.39.577-7.64 4.397-7.64.649 0 .649 1.01 0 1.01h-.288c-2.955.21-4.757 3.46-3.244 6.2m-2.018-7.21c2.811-2.81 7.353-2.81 10.092 0 2.595 2.59 2.811 6.63.576 9.44l1.586 1.52c.433-.29 1.081-.22 1.442.14l4.902 4.9c1.153 1.16-1.442 3.75-2.595 2.6l-4.902-4.91c-.361-.36-.433-1-.144-1.44l-1.514-1.58c-2.811 2.23-6.848 2.02-9.443-.58-2.811-2.74-2.811-7.28 0-10.09"></path></g></g></svg>
