<svg viewBox="0 0 132 132" xmlns="http://www.w3.org/2000/svg" fill-rule="evenodd" clip-rule="evenodd" stroke-linejoin="round" stroke-miterlimit="2"><path d="M111.921 19.204C99.538 6.821 83.075 0 65.563 0 48.05 0 31.583 6.82 19.2 19.204 6.82 31.588 0 48.05 0 65.563c0 17.512 6.82 33.979 19.2 46.358 12.383 12.383 28.85 19.204 46.363 19.204 17.512 0 33.975-6.816 46.358-19.204 12.383-12.38 19.204-28.846 19.204-46.358 0-17.513-6.82-33.975-19.204-46.359m-9.763 82.954c-9.775 9.776-22.775 15.159-36.595 15.159-13.825 0-26.821-5.383-36.596-15.159-9.775-9.775-15.159-22.77-15.159-36.595 0-13.821 5.384-26.821 15.159-36.592 9.775-9.775 22.77-15.158 36.596-15.158 13.82 0 26.82 5.383 36.595 15.158 9.776 9.77 15.159 22.77 15.159 36.592 0 13.825-5.383 26.82-15.159 36.595" fill="#e6007d" fill-rule="nonzero"/><path d="M74.45 56.746a12.491 12.491 0 00-8.887-3.684 12.494 12.494 0 00-8.892 3.684 12.494 12.494 0 00-3.683 8.891c0 3.355 1.308 6.513 3.683 8.888a12.494 12.494 0 008.892 3.683c3.354 0 6.512-1.308 8.887-3.683a12.491 12.491 0 003.684-8.888c0-3.358-1.309-6.516-3.684-8.891M65.561 84.093c-9.083 0-16.45 7.367-16.45 16.45 0 2.208.442 4.317 1.23 6.242a43.872 43.872 0 0015.22 2.704c5.28 0 10.413-.93 15.221-2.704a16.455 16.455 0 001.23-6.242c0-9.083-7.367-16.45-16.45-16.45M109.376 63.859a16.403 16.403 0 00-5.533-3.08C95.2 57.972 85.922 62.7 83.113 71.339c-2.804 8.642 1.921 17.92 10.563 20.73 2.096.678 4.225.912 6.296.757 6.116-7.712 9.442-17.195 9.442-27.187 0-.596-.013-1.188-.038-1.78M72.771 27.728c-5.337 7.35-3.708 17.633 3.638 22.975 7.35 5.337 17.637 3.712 22.979-3.638a16.415 16.415 0 002.67-5.766 44.556 44.556 0 00-5.487-6.671c-5.404-5.404-11.97-9.225-19.137-11.23a16.463 16.463 0 00-4.663 4.33M54.712 50.703c7.35-5.337 8.98-15.625 3.638-22.975a16.334 16.334 0 00-4.663-4.325c-7.162 2-13.729 5.817-19.133 11.225a43.848 43.848 0 00-5.487 6.671 16.415 16.415 0 002.67 5.767c5.338 7.346 15.625 8.975 22.976 3.637M37.447 92.066c8.641-2.808 13.366-12.087 10.562-20.725C45.201 62.7 35.922 57.971 27.28 60.78a16.403 16.403 0 00-5.533 3.079 42.09 42.09 0 00-.038 1.78c0 9.99 3.321 19.474 9.442 27.19 2.07.15 4.2-.083 6.296-.762" fill="#e6007d" fill-rule="nonzero"/></svg>
